<?xml version="1.0" encoding="utf-8"?>
<!-- Generator: Adobe Illustrator 26.5.0, SVG Export Plug-In . SVG Version: 6.00 Build 0)  -->
<svg version="1.1" xmlns="http://www.w3.org/2000/svg" xmlns:xlink="http://www.w3.org/1999/xlink" x="0px" y="0px"
	 viewBox="0 0 80 80" style="enable-background:new 0 0 80 80;" xml:space="preserve">
<style type="text/css">
	.st0{fill:#FFFFFF;stroke:#FFFFFF;stroke-width:3;stroke-miterlimit:10;}
	.st1{stroke:#000000;stroke-miterlimit:10;}
	.st2{fill:#FFFFFF;stroke:#000000;stroke-miterlimit:10;}
	.st3{fill:none;stroke:#000000;stroke-miterlimit:10;}
	.st4{fill:none;stroke:#000000;stroke-width:3;stroke-miterlimit:10;}
</style>
<g id="レイヤー_2">
	<rect class="st0" width="78.46" height="78.46"/>
</g>
<g id="レイヤー_1">
	<rect x="7.86" y="46.82" class="st1" width="65.18" height="15.65"/>
	<rect x="7.86" y="29.12" class="st1" width="5.75" height="17.7"/>
	<circle class="st1" cx="20.65" cy="40.89" r="4.87"/>
	<rect x="27.03" y="37.97" class="st1" width="26.45" height="7.32"/>
	<rect x="55.2" y="37.97" class="st1" width="15.78" height="7.32"/>
	<circle class="st2" cx="24.03" cy="30.24" r="2.13"/>
	<ellipse class="st2" cx="31.69" cy="24.66" rx="2.46" ry="2.11"/>
	
		<ellipse transform="matrix(0.0471 -0.9989 0.9989 0.0471 34.396 64.5737)" class="st2" cx="51.04" cy="14.26" rx="9.97" ry="18.32"/>
	<ellipse transform="matrix(0.8201 -0.5722 0.5722 0.8201 -2.0206 28.42)" class="st1" cx="44.19" cy="17.42" rx="2.36" ry="1.66"/>
	<line class="st3" x1="47.34" y1="8.99" x2="46.22" y2="16.32"/>
	<line class="st3" x1="55.48" y1="8.53" x2="46.78" y2="8.99"/>
	<line class="st3" x1="55.02" y1="8.56" x2="54" y2="16.76"/>
	<ellipse transform="matrix(0.7778 -0.6285 0.6285 0.7778 0.6918 36.8038)" class="st1" cx="52.4" cy="17.42" rx="2.36" ry="1.66"/>
	<line class="st3" x1="54.77" y1="10.59" x2="46.78" y2="11.01"/>
	<rect x="0.57" y="0.43" class="st4" width="79.17" height="69.9"/>
</g>
</svg>
