<?xml version="1.0" encoding="utf-8"?>
<!-- Generator: Adobe Illustrator 26.5.0, SVG Export Plug-In . SVG Version: 6.00 Build 0)  -->
<svg version="1.1" id="レイヤー_1" xmlns="http://www.w3.org/2000/svg" xmlns:xlink="http://www.w3.org/1999/xlink" x="0px"
	 y="0px" viewBox="0 0 292.4 70.3" style="enable-background:new 0 0 292.4 70.3;" xml:space="preserve">
<style type="text/css">
	.st0{fill:#FFFFFF;stroke:#FFFFFF;stroke-width:3;stroke-miterlimit:10;}
	.st1{stroke:#000000;stroke-miterlimit:10;}
	.st2{fill:#FFFFFF;stroke:#000000;stroke-miterlimit:10;}
	.st3{fill:#FFFFFF;stroke:#000000;stroke-width:1;stroke-miterlimit:10.0001;}
	.st4{stroke:#000000;stroke-width:1;stroke-miterlimit:9.9999;}
	.st5{fill:none;stroke:#000000;stroke-miterlimit:10;}
	.st6{fill:none;stroke:#000000;stroke-width:3;stroke-miterlimit:10;}
	.st7{fill:none;}
	.st8{font-family:'Katakanaboy-R-90ms-RKSJ-H';}
	.st9{font-size:36px;}
</style>
<g id="レイヤー_2_00000091711576815720992490000016195822671504900262_">
	<rect class="st0" width="78.5" height="78.5"/>
</g>
<g id="レイヤー_1_00000142886208992690470980000005550608092883477427_">
	<rect x="5.9" y="46.8" class="st1" width="65.2" height="15.7"/>
	<rect x="5.9" y="29.1" class="st1" width="5.8" height="17.7"/>
	<circle class="st1" cx="18.6" cy="40.9" r="4.9"/>
	<rect x="25" y="38" class="st1" width="26.5" height="7.3"/>
	<rect x="53.2" y="38" class="st1" width="15.8" height="7.3"/>
	<circle class="st2" cx="22" cy="30.2" r="2.1"/>
	<ellipse class="st2" cx="29.7" cy="24.7" rx="2.5" ry="2.1"/>
	
		<ellipse transform="matrix(4.709954e-02 -0.9989 0.9989 4.709954e-02 32.4887 62.5797)" class="st3" cx="49" cy="14.3" rx="10" ry="18.3"/>
	<ellipse transform="matrix(0.8201 -0.5722 0.5722 0.8201 -1.6271 27.666)" class="st4" cx="43.2" cy="16.4" rx="2.4" ry="1.7"/>
	<line class="st5" x1="45.3" y1="9" x2="44.2" y2="16.3"/>
	<line class="st5" x1="53.5" y1="8.5" x2="44.8" y2="9"/>
	<line class="st5" x1="53" y1="8.6" x2="52" y2="16.8"/>
	<ellipse transform="matrix(0.7778 -0.6285 0.6285 0.7778 0.2496 35.5453)" class="st4" cx="50.4" cy="17.4" rx="2.4" ry="1.7"/>
	<line class="st5" x1="52.8" y1="10.6" x2="44.8" y2="11"/>
	<rect x="-1.4" y="0.4" class="st6" width="79.2" height="69.9"/>
	<rect x="97.2" y="14.2" class="st7" width="215.8" height="40.8"/>
	<text transform="matrix(1 0 0 1 97.2402 45.8604)" class="st8 st9">うたのゆめ</text>
</g>
</svg>
